<svg version="1.1" id="Layer_1" xmlns="http://www.w3.org/2000/svg" xmlns:xlink="http://www.w3.org/1999/xlink" x="0px" y="0px"
	 width="100%" viewBox="0 0 1000 500" enable-background="new 0 0 1000 500" xml:space="preserve">
<path fill="#FBFBFB" opacity="1.000000" stroke="none" 
	d="
M693.000000,501.000000 
	C462.038391,501.000000 231.576767,501.000000 1.057580,501.000000 
	C1.057580,334.399506 1.057580,167.798965 1.057580,1.099213 
	C334.211639,1.099213 667.423340,1.099213 1000.817505,1.099213 
	C1000.817505,167.666504 1000.817505,334.333221 1000.817505,501.000000 
	C898.465515,501.000000 795.982788,501.000000 693.000000,501.000000 
M754.828796,221.742966 
	C765.800232,242.432693 776.771667,263.122406 788.013428,284.321808 
	C805.735474,250.617371 822.945679,217.886322 840.155945,185.155273 
	C841.059448,220.552933 841.059326,255.534164 841.059875,290.515381 
	C841.059875,291.848083 840.841064,293.235077 841.145569,294.494965 
	C841.360229,295.383240 842.289124,296.098907 842.899170,296.891632 
	C843.575256,296.166107 844.516235,295.544586 844.853333,294.685974 
	C845.193970,293.818481 844.940002,292.716064 844.940002,291.716553 
	C844.940674,255.899811 844.943420,220.083084 844.929932,184.266342 
	C844.929443,182.836212 844.773376,181.406158 844.698181,180.119186 
	C840.560486,178.909042 838.513550,180.172989 836.623413,183.839249 
	C821.941467,212.317093 806.984070,240.653015 792.088318,269.020447 
	C790.924438,271.236725 789.581482,273.358887 788.004639,276.069885 
	C786.345520,273.011292 785.137390,270.849121 783.988342,268.656006 
	C769.272156,240.568512 754.544067,212.487213 739.880127,184.372437 
	C738.023865,180.813446 735.889893,178.321701 731.059448,180.348511 
	C731.059448,181.968674 731.059448,183.760956 731.059448,185.553238 
	C731.059448,212.040955 731.059448,238.528671 731.059448,265.016388 
	C731.059448,274.345398 730.981201,283.675781 731.143982,293.001953 
	C731.168457,294.403259 732.320557,295.784882 732.950989,297.175598 
	C733.549683,296.960052 734.148438,296.744537 734.747131,296.528992 
	C734.747131,259.497711 734.747131,222.466415 734.747131,185.435120 
	C735.077759,185.341690 735.408447,185.248276 735.739075,185.154846 
	C741.969421,197.142838 748.199768,209.130829 754.828796,221.742966 
M688.970032,245.465408 
	C699.210266,234.274536 702.101624,221.097549 697.464783,206.988220 
	C689.050659,181.385086 659.969116,172.137741 637.769226,187.583405 
	C635.508606,189.156250 634.188354,189.397812 631.788330,187.710358 
	C614.286194,175.404846 592.322021,178.163162 578.823975,194.144714 
	C565.918091,209.425201 566.996216,231.881363 581.641541,246.763443 
	C597.642029,263.022552 613.854187,279.073578 629.998718,295.190643 
	C633.972656,299.157898 635.480347,299.135101 639.490173,295.121033 
	C655.837341,278.756622 672.163147,262.370850 688.970032,245.465408 
M150.500458,179.712631 
	C142.755219,179.712631 135.009979,179.712631 127.466576,179.712631 
	C127.466576,219.173233 127.466576,257.903229 127.466576,296.608978 
	C128.344131,296.755646 128.828751,296.906982 129.313522,296.907501 
	C144.643341,296.924500 159.989182,297.341675 175.296082,296.751373 
	C182.638443,296.468262 190.199127,295.128479 197.142334,292.752045 
	C208.181580,288.973602 214.935562,280.900299 215.928314,268.826752 
	C216.938934,256.535980 213.182495,246.512299 201.707565,240.535980 
	C197.989838,238.599731 194.000504,237.185043 191.423248,236.082642 
	C195.564606,232.963379 201.337021,230.267807 204.702423,225.770889 
	C214.779877,212.305237 212.483765,185.888504 186.807358,181.275208 
	C175.315781,179.210510 163.285995,180.141388 150.500458,179.712631 
M298.496490,238.288528 
	C303.162476,238.287811 307.835358,238.420746 312.489075,238.181305 
	C313.502686,238.129166 314.447693,236.744629 315.424286,235.973740 
	C315.134308,235.490753 314.844330,235.007767 314.554352,234.524780 
	C294.133392,234.524780 273.712433,234.524780 253.210373,234.524780 
	C253.210373,217.219696 253.210373,200.307861 253.210373,182.954651 
	C276.567322,182.954651 299.652863,182.954651 322.738403,182.954651 
	C322.885834,182.342941 323.033264,181.731232 323.180695,181.119522 
	C321.665070,180.650162 320.151489,179.780090 318.633514,179.772400 
	C300.135834,179.678543 281.637573,179.711411 263.139435,179.711395 
	C258.671875,179.711395 254.204330,179.711395 249.799469,179.711395 
	C249.799469,219.006744 249.799469,257.843872 249.799469,296.721863 
	C275.088318,296.721863 299.877106,296.721863 324.702057,296.721863 
	C325.875885,292.278748 322.649323,293.340851 320.673950,293.335205 
	C300.509460,293.277771 280.344788,293.300018 260.180145,293.300018 
	C257.904785,293.300018 255.629440,293.300018 253.230743,293.300018 
	C253.230743,274.684021 253.230743,256.612396 253.230743,238.288345 
	C268.182678,238.288345 282.840088,238.288345 298.496490,238.288528 
M433.510956,271.195251 
	C436.950104,278.726562 440.295044,286.303650 443.910126,293.749573 
	C444.610321,295.191742 446.365326,296.121765 447.633789,297.288055 
	C448.046844,296.899048 448.459900,296.510071 448.872955,296.121063 
	C444.607971,286.981506 440.312775,277.855896 436.083618,268.699799 
	C422.810852,239.964493 409.585602,211.207153 396.225861,182.512390 
	C395.666321,181.310516 394.015961,180.107880 392.734894,179.935043 
	C391.924072,179.825638 390.500031,181.459473 389.959229,182.599915 
	C386.132965,190.668579 382.476257,198.817474 378.742889,206.930405 
	C366.716339,233.065002 354.671478,259.191162 342.657532,285.331543 
	C340.977600,288.986786 339.431427,292.703491 337.823334,296.391754 
	C338.274994,296.757294 338.726654,297.122833 339.178284,297.488373 
	C340.393982,296.371063 342.087128,295.482269 342.748779,294.099762 
	C347.459564,284.257233 351.877075,274.274078 356.617645,264.446472 
	C357.310883,263.009369 359.215027,261.195465 360.573364,261.183380 
	C383.209198,260.981598 405.847351,261.039520 428.469177,261.039520 
	C430.074951,264.319702 431.598633,267.432129 433.510956,271.195251 
M540.088257,288.860474 
	C517.241882,297.842316 496.188110,295.280792 477.733704,278.520844 
	C446.875183,250.495758 457.475433,199.377869 496.922058,185.981323 
	C516.398376,179.366913 534.706299,181.750153 551.354126,194.392334 
	C552.510254,195.270264 554.219971,195.419113 555.672302,195.907013 
	C555.812073,195.468292 555.951904,195.029556 556.091736,194.590836 
	C537.358337,175.995575 501.811218,171.724274 476.176300,194.465363 
	C451.588562,216.277512 448.742493,254.322021 473.853882,279.880859 
	C495.689148,302.105255 535.730774,303.071411 556.300049,280.878693 
	C554.802673,280.646545 553.274475,280.682587 552.122070,281.358948 
	C548.266296,283.621979 544.544922,286.113983 540.088257,288.860474 
M555.267639,355.267426 
	C557.438599,364.170654 562.925781,367.272614 571.380798,364.392639 
	C572.089233,364.151306 573.137512,363.614349 573.516968,363.898071 
	C577.900574,367.175507 577.572388,363.766144 577.676941,361.026093 
	C577.740173,359.368622 577.752869,357.703552 577.674622,356.047272 
	C577.322021,348.582092 573.268677,343.664246 567.147217,343.212067 
	C561.051575,342.761810 556.552429,346.980591 555.267639,355.267426 
M649.620911,347.248596 
	C646.698730,351.863953 646.065430,356.616089 649.539612,361.138184 
	C652.382690,364.838928 656.440918,366.410217 660.948425,365.012756 
	C662.815308,364.433960 664.234314,362.410706 665.857056,361.044342 
	C664.128418,361.021942 662.399536,360.974396 660.671265,360.990021 
	C660.009644,360.995972 659.351746,361.181915 658.688171,361.225006 
	C654.426819,361.502045 651.948486,359.070618 651.351379,355.293701 
	C650.739807,351.424652 652.866150,348.443237 656.681641,347.463287 
	C660.305359,346.532623 663.064758,347.965179 664.503235,352.331543 
	C662.468201,352.331543 660.773682,352.071411 659.217468,352.423004 
	C658.180969,352.657227 657.341736,353.764099 656.414185,354.480377 
	C657.287598,355.073456 658.119690,356.088043 659.042297,356.178314 
	C661.518372,356.420471 664.108154,356.619385 666.498169,356.109985 
	C667.558105,355.884094 669.066589,353.838562 668.972107,352.739319 
	C668.180664,343.532257 658.937622,340.637146 649.620911,347.248596 
M391.947418,357.486145 
	C395.122040,364.449341 400.070190,366.763550 407.089447,364.552826 
	C407.860382,364.310028 408.953522,363.513702 409.312958,363.775665 
	C415.264618,368.113953 413.591125,362.554901 413.846313,360.157959 
	C414.088165,357.886139 413.909363,355.505432 413.515564,353.242157 
	C412.347076,346.526337 406.902924,342.299377 401.049500,343.351624 
	C394.490082,344.530823 390.959015,349.642914 391.947418,357.486145 
M453.956543,356.269836 
	C458.773071,356.724243 458.808228,353.934814 457.601105,350.633362 
	C455.554230,345.035187 449.466492,342.087982 443.957825,343.854065 
	C438.482727,345.609436 435.029785,351.316559 436.239105,356.611725 
	C437.621674,362.665283 443.062866,366.415466 449.218750,364.973602 
	C451.218445,364.505219 452.850830,362.468781 454.651215,361.149597 
	C452.853088,361.115570 451.054962,361.079102 449.256744,361.051666 
	C449.093719,361.049164 448.928314,361.097534 448.766602,361.133911 
	C445.064514,361.966827 441.117981,359.841492 440.297852,356.216675 
	C439.420074,352.336823 440.879059,349.333405 444.688416,347.830261 
	C448.785156,346.213745 451.609467,347.627838 453.424286,351.718414 
	C450.436798,352.301544 447.736603,352.828583 445.036377,353.355591 
	C445.036438,354.057770 445.036499,354.759949 445.036560,355.462128 
	C447.741211,355.731262 450.445831,356.000397 453.956543,356.269836 
M506.469421,364.240540 
	C507.906097,364.615692 509.323090,365.178467 510.783051,365.331635 
	C515.623718,365.839386 519.305359,363.511780 521.409790,359.505951 
	C523.417603,355.684235 523.341980,351.372894 520.444092,347.801361 
	C517.575378,344.265808 513.952942,342.435852 509.117493,343.637909 
	C504.820770,344.706055 502.185150,347.296570 500.979797,351.391327 
	C499.406525,356.735901 501.562897,360.734894 506.469421,364.240540 
M329.962402,345.387024 
	C323.449951,350.772980 324.963013,358.113617 328.400208,361.972626 
	C331.977539,365.988983 338.922913,366.460114 343.258972,363.078400 
	C347.661194,359.645081 348.902985,353.448395 346.113281,348.834991 
	C342.795258,343.347931 337.373596,342.006653 329.962402,345.387024 
M614.086365,359.422333 
	C616.920166,352.121643 614.052795,345.514740 607.231995,343.628540 
	C601.096802,341.931946 594.722717,346.007904 593.437012,352.449829 
	C592.546204,356.913452 595.231873,362.627228 599.513916,364.464783 
	C603.838745,366.320648 610.260376,366.030884 614.086365,359.422333 
M479.123444,350.347443 
	C480.979187,347.518250 483.909332,345.703735 486.668182,347.611298 
	C488.714996,349.026550 489.935608,352.246368 490.591064,354.893433 
	C491.251587,357.560791 490.633728,360.523560 490.858215,363.334320 
	C490.917572,364.077362 491.961243,365.214600 492.656097,365.296600 
	C493.307159,365.373413 494.746033,364.262512 494.721252,363.725891 
	C494.486572,358.645935 495.103973,353.159760 493.359863,348.599945 
	C490.545074,341.240814 481.368652,340.908478 476.503876,347.272980 
	C472.648499,352.316956 474.314026,358.087646 474.412628,363.610962 
	C474.422943,364.188354 476.453033,364.729706 477.857635,365.446899 
	C478.234314,360.088776 478.547577,355.632782 479.123444,350.347443 
M369.325470,356.050873 
	C368.643219,359.735565 366.378540,361.686920 362.697083,361.217255 
	C358.697144,360.706970 357.386932,357.709564 357.284271,354.053192 
	C357.223694,351.895844 357.509399,349.698883 357.186127,347.589203 
	C356.969788,346.177307 355.957367,344.887360 355.301178,343.542847 
	C354.561157,344.800812 353.367554,345.994995 353.179718,347.330627 
	C352.836182,349.773041 352.932190,352.311249 353.125977,354.787506 
	C353.435822,358.746277 354.774353,362.150146 358.632263,364.142212 
	C363.392303,366.600128 368.220276,365.718933 371.514099,361.598938 
	C374.852478,357.423279 374.966064,346.812805 370.462463,341.836426 
	C370.076385,347.090332 369.779877,351.125336 369.325470,356.050873 
M322.872864,343.757385 
	C321.519897,344.760681 319.641876,345.479828 318.915314,346.822174 
	C316.961761,350.431427 315.500061,354.306915 313.567139,358.704590 
	C311.337341,354.321014 309.530243,350.428467 307.383514,346.733246 
	C306.635895,345.446289 305.049042,344.646881 303.845459,343.624817 
	C303.937012,345.348328 303.980316,347.076660 304.153076,348.791992 
	C304.197845,349.236542 304.700745,349.616425 304.903931,350.066376 
	C308.039429,357.009552 314.432404,363.491089 307.909424,371.842346 
	C307.550201,372.302277 308.458771,373.752472 308.777222,374.741699 
	C309.759888,374.122955 311.232147,373.733856 311.647217,372.848877 
	C314.797729,366.131927 317.822205,359.352081 320.708801,352.517029 
	C321.828705,349.865265 322.491150,347.020325 322.872864,343.757385 
M638.796143,345.660248 
	C632.028076,341.116730 624.128967,342.603912 622.330078,349.305695 
	C621.200134,353.514984 621.596008,358.160889 621.560303,362.612946 
	C621.553528,363.454102 622.737244,364.304810 623.371582,365.151123 
	C624.131348,364.250732 625.440735,363.410309 625.546814,362.438538 
	C625.852112,359.642792 625.595581,356.791199 625.699524,353.966675 
	C625.846558,349.970123 627.629211,346.981537 631.934875,347.161469 
	C636.051636,347.333557 637.935120,350.191437 637.955750,354.241760 
	C637.970093,357.069824 637.816345,359.910187 638.050781,362.718903 
	C638.123352,363.588745 639.224304,364.372742 639.854431,365.196045 
	C640.565796,364.635590 641.914673,364.046265 641.890747,363.519104 
	C641.625916,357.672974 643.673645,351.450623 638.796143,345.660248 
M529.745605,354.975525 
	C529.461304,359.292877 530.514954,363.033752 534.960022,364.624451 
	C536.377075,365.131561 538.201965,364.498718 539.840271,364.387482 
	C540.133484,363.860748 540.426697,363.334015 540.719971,362.807281 
	C531.469055,360.596191 534.133057,353.997009 534.012390,348.642303 
	C535.962280,347.764740 537.599976,347.027679 539.237671,346.290619 
	C539.194946,345.872498 539.152222,345.454376 539.109558,345.036224 
	C537.388611,344.476715 535.667725,343.917206 533.905151,343.344177 
	C533.905151,342.385071 534.150024,341.453857 533.854126,340.750092 
	C533.239929,339.289642 532.338684,337.949860 531.555481,336.560486 
	C530.952148,337.920197 529.897766,339.257446 529.828613,340.643799 
	C529.605652,345.112732 529.745667,349.599823 529.745605,354.975525 
M586.333435,364.806763 
	C588.106079,364.505920 589.878784,364.205048 591.651428,363.904205 
	C591.692200,363.363251 591.733032,362.822296 591.773804,362.281311 
	C586.977417,361.424469 586.742188,358.150391 586.859680,354.417114 
	C587.037170,348.777405 587.022522,343.123138 586.801514,337.486328 
	C586.755615,336.316071 585.451843,335.195129 584.727722,334.051422 
	C584.068848,335.198090 582.865845,336.332977 582.840698,337.493408 
	C582.693359,344.295258 582.592102,351.116486 582.987305,357.901306 
	C583.116455,360.117828 584.779785,362.245026 586.333435,364.806763 
M422.137421,347.812042 
	C421.411194,351.958374 420.445038,356.083954 420.084045,360.261841 
	C419.950928,361.802307 421.244598,363.466064 421.887482,365.073608 
	C422.564758,363.444855 423.303558,361.837677 423.886322,360.175781 
	C424.092896,359.586700 423.918457,358.864380 423.919556,358.202881 
	C423.932648,350.345459 424.214813,350.009399 431.847107,346.738892 
	C432.723663,346.363251 433.259064,345.191498 433.952667,344.388885 
	C433.024689,343.913971 431.846497,342.815765 431.211517,343.070740 
	C428.268982,344.252075 425.477203,345.808929 422.137421,347.812042 
z"/>
<path fill="#3E4A56" opacity="1.000000" stroke="none" 
	d="
M754.629395,221.430893 
	C748.199768,209.130829 741.969421,197.142838 735.739075,185.154846 
	C735.408447,185.248276 735.077759,185.341690 734.747131,185.435120 
	C734.747131,222.466415 734.747131,259.497711 734.747131,296.528992 
	C734.148438,296.744537 733.549683,296.960052 732.950989,297.175598 
	C732.320557,295.784882 731.168457,294.403259 731.143982,293.001953 
	C730.981201,283.675781 731.059448,274.345398 731.059448,265.016388 
	C731.059448,238.528671 731.059448,212.040955 731.059448,185.553238 
	C731.059448,183.760956 731.059448,181.968674 731.059448,180.348511 
	C735.889893,178.321701 738.023865,180.813446 739.880127,184.372437 
	C754.544067,212.487213 769.272156,240.568512 783.988342,268.656006 
	C785.137390,270.849121 786.345520,273.011292 788.004639,276.069885 
	C789.581482,273.358887 790.924438,271.236725 792.088318,269.020447 
	C806.984070,240.653015 821.941467,212.317093 836.623413,183.839249 
	C838.513550,180.172989 840.560486,178.909042 844.698181,180.119186 
	C844.773376,181.406158 844.929443,182.836212 844.929932,184.266342 
	C844.943420,220.083084 844.940674,255.899811 844.940002,291.716553 
	C844.940002,292.716064 845.193970,293.818481 844.853333,294.685974 
	C844.516235,295.544586 843.575256,296.166107 842.899170,296.891632 
	C842.289124,296.098907 841.360229,295.383240 841.145569,294.494965 
	C840.841064,293.235077 841.059875,291.848083 841.059875,290.515381 
	C841.059326,255.534164 841.059448,220.552933 840.155945,185.155273 
	C822.945679,217.886322 805.735474,250.617371 788.013428,284.321808 
	C776.771667,263.122406 765.800232,242.432693 754.629395,221.430893 
z"/>
<path fill="#488ED2" opacity="1.000000" stroke="none" 
	d="
M688.733398,245.729187 
	C672.163147,262.370850 655.837341,278.756622 639.490173,295.121033 
	C635.480347,299.135101 633.972656,299.157898 629.998718,295.190643 
	C613.854187,279.073578 597.642029,263.022552 581.641541,246.763443 
	C566.996216,231.881363 565.918091,209.425201 578.823975,194.144714 
	C592.322021,178.163162 614.286194,175.404846 631.788330,187.710358 
	C634.188354,189.397812 635.508606,189.156250 637.769226,187.583405 
	C659.969116,172.137741 689.050659,181.385086 697.464783,206.988220 
	C702.101624,221.097549 699.210266,234.274536 688.733398,245.729187 
M591.045044,189.396530 
	C571.287170,202.303894 568.509094,226.979233 585.036987,243.856705 
	C595.286621,254.323074 605.745178,264.584534 616.079041,274.968750 
	C622.165344,281.084717 628.191223,287.260864 634.173157,293.337708 
	C635.131287,292.819855 635.644470,292.674744 635.973755,292.345612 
	C652.688599,275.635590 669.714478,259.220001 685.983826,242.086197 
	C698.656860,228.739792 697.959229,208.177628 685.437683,195.016907 
	C673.153809,182.105957 652.593323,181.037674 638.398560,192.763077 
	C635.789612,194.918121 634.149231,195.356232 631.239685,192.973801 
	C619.031982,182.977692 605.718323,181.948822 591.045044,189.396530 
z"/>
<path fill="#3B4854" opacity="1.000000" stroke="none" 
	d="
M151.000458,179.712738 
	C163.285995,180.141388 175.315781,179.210510 186.807358,181.275208 
	C212.483765,185.888504 214.779877,212.305237 204.702423,225.770889 
	C201.337021,230.267807 195.564606,232.963379 191.423248,236.082642 
	C194.000504,237.185043 197.989838,238.599731 201.707565,240.535980 
	C213.182495,246.512299 216.938934,256.535980 215.928314,268.826752 
	C214.935562,280.900299 208.181580,288.973602 197.142334,292.752045 
	C190.199127,295.128479 182.638443,296.468262 175.296082,296.751373 
	C159.989182,297.341675 144.643341,296.924500 129.313522,296.907501 
	C128.828751,296.906982 128.344131,296.755646 127.466576,296.608978 
	C127.466576,257.903229 127.466576,219.173233 127.466576,179.712631 
	C135.009979,179.712631 142.755219,179.712631 151.000458,179.712738 
M204.627472,284.200134 
	C215.103607,276.289185 215.950378,255.102783 203.974731,246.047256 
	C196.760468,240.592133 188.577621,238.341202 179.886597,238.140732 
	C164.418655,237.783920 148.938034,237.970551 133.462708,237.953430 
	C132.691498,237.952576 131.920029,238.174927 131.170074,238.290054 
	C131.170074,256.666321 131.170074,274.741211 131.170074,293.057220 
	C147.323715,293.057220 163.245087,293.212311 179.161469,292.997284 
	C188.259140,292.874390 196.834290,290.609772 204.627472,284.200134 
M163.475235,183.052185 
	C152.717117,183.052185 141.959000,183.052185 130.943024,183.052185 
	C130.943024,199.757462 130.939789,215.877625 130.955200,231.997757 
	C130.955795,232.626816 131.134964,233.255707 131.294632,234.302017 
	C145.036118,234.302017 158.640778,234.415421 172.241745,234.240753 
	C177.030228,234.179260 181.864975,233.728806 186.582108,232.904007 
	C197.703354,230.959396 205.386536,222.456100 206.216873,211.657104 
	C207.214005,198.688736 201.774994,188.941681 190.018433,185.915848 
	C181.799255,183.800430 173.003052,183.926971 163.475235,183.052185 
z"/>
<path fill="#3C4854" opacity="1.000000" stroke="none" 
	d="
M297.997009,238.288437 
	C282.840088,238.288345 268.182678,238.288345 253.230743,238.288345 
	C253.230743,256.612396 253.230743,274.684021 253.230743,293.300018 
	C255.629440,293.300018 257.904785,293.300018 260.180145,293.300018 
	C280.344788,293.300018 300.509460,293.277771 320.673950,293.335205 
	C322.649323,293.340851 325.875885,292.278748 324.702057,296.721863 
	C299.877106,296.721863 275.088318,296.721863 249.799469,296.721863 
	C249.799469,257.843872 249.799469,219.006744 249.799469,179.711395 
	C254.204330,179.711395 258.671875,179.711395 263.139435,179.711395 
	C281.637573,179.711411 300.135834,179.678543 318.633514,179.772400 
	C320.151489,179.780090 321.665070,180.650162 323.180695,181.119522 
	C323.033264,181.731232 322.885834,182.342941 322.738403,182.954651 
	C299.652863,182.954651 276.567322,182.954651 253.210373,182.954651 
	C253.210373,200.307861 253.210373,217.219696 253.210373,234.524780 
	C273.712433,234.524780 294.133392,234.524780 314.554352,234.524780 
	C314.844330,235.007767 315.134308,235.490753 315.424286,235.973740 
	C314.447693,236.744629 313.502686,238.129166 312.489075,238.181305 
	C307.835358,238.420746 303.162476,238.287811 297.997009,238.288437 
z"/>
<path fill="#35424F" opacity="1.000000" stroke="none" 
	d="
M433.316620,270.869904 
	C431.598633,267.432129 430.074951,264.319702 428.469177,261.039520 
	C405.847351,261.039520 383.209198,260.981598 360.573364,261.183380 
	C359.215027,261.195465 357.310883,263.009369 356.617645,264.446472 
	C351.877075,274.274078 347.459564,284.257233 342.748779,294.099762 
	C342.087128,295.482269 340.393982,296.371063 339.178284,297.488373 
	C338.726654,297.122833 338.274994,296.757294 337.823334,296.391754 
	C339.431427,292.703491 340.977600,288.986786 342.657532,285.331543 
	C354.671478,259.191162 366.716339,233.065002 378.742889,206.930405 
	C382.476257,198.817474 386.132965,190.668579 389.959229,182.599915 
	C390.500031,181.459473 391.924072,179.825638 392.734894,179.935043 
	C394.015961,180.107880 395.666321,181.310516 396.225861,182.512390 
	C409.585602,211.207153 422.810852,239.964493 436.083618,268.699799 
	C440.312775,277.855896 444.607971,286.981506 448.872955,296.121063 
	C448.459900,296.510071 448.046844,296.899048 447.633789,297.288055 
	C446.365326,296.121765 444.610321,295.191742 443.910126,293.749573 
	C440.295044,286.303650 436.950104,278.726562 433.316620,270.869904 
M377.288452,217.968811 
	C371.498322,231.008530 365.708191,244.048248 359.781128,257.396362 
	C382.395721,257.396362 404.235809,257.396362 426.877991,257.396362 
	C415.513550,232.742599 404.421997,208.680771 392.992859,183.886658 
	C387.569580,195.762085 382.643066,206.549683 377.288452,217.968811 
z"/>
<path fill="#3B4754" opacity="1.000000" stroke="none" 
	d="
M540.430176,288.689392 
	C544.544922,286.113983 548.266296,283.621979 552.122070,281.358948 
	C553.274475,280.682587 554.802673,280.646545 556.300049,280.878693 
	C535.730774,303.071411 495.689148,302.105255 473.853882,279.880859 
	C448.742493,254.322021 451.588562,216.277512 476.176300,194.465363 
	C501.811218,171.724274 537.358337,175.995575 556.091736,194.590836 
	C555.951904,195.029556 555.812073,195.468292 555.672302,195.907013 
	C554.219971,195.419113 552.510254,195.270264 551.354126,194.392334 
	C534.706299,181.750153 516.398376,179.366913 496.922058,185.981323 
	C457.475433,199.377869 446.875183,250.495758 477.733704,278.520844 
	C496.188110,295.280792 517.241882,297.842316 540.430176,288.689392 
z"/>
<path fill="#394552" opacity="1.000000" stroke="none" 
	d="
M555.195068,354.877441 
	C556.552429,346.980591 561.051575,342.761810 567.147217,343.212067 
	C573.268677,343.664246 577.322021,348.582092 577.674622,356.047272 
	C577.752869,357.703552 577.740173,359.368622 577.676941,361.026093 
	C577.572388,363.766144 577.900574,367.175507 573.516968,363.898071 
	C573.137512,363.614349 572.089233,364.151306 571.380798,364.392639 
	C562.925781,367.272614 557.438599,364.170654 555.195068,354.877441 
M562.244629,348.835388 
	C558.595703,352.928711 558.301514,356.012512 561.316833,359.158844 
	C564.235779,362.204620 567.565735,361.897064 570.746216,359.842468 
	C574.177795,357.625702 574.176331,353.930176 572.515137,351.039886 
	C570.485840,347.509308 567.075256,345.677490 562.244629,348.835388 
z"/>
<path fill="#384551" opacity="1.000000" stroke="none" 
	d="
M649.884277,346.979492 
	C658.937622,340.637146 668.180664,343.532257 668.972107,352.739319 
	C669.066589,353.838562 667.558105,355.884094 666.498169,356.109985 
	C664.108154,356.619385 661.518372,356.420471 659.042297,356.178314 
	C658.119690,356.088043 657.287598,355.073456 656.414185,354.480377 
	C657.341736,353.764099 658.180969,352.657227 659.217468,352.423004 
	C660.773682,352.071411 662.468201,352.331543 664.503235,352.331543 
	C663.064758,347.965179 660.305359,346.532623 656.681641,347.463287 
	C652.866150,348.443237 650.739807,351.424652 651.351379,355.293701 
	C651.948486,359.070618 654.426819,361.502045 658.688171,361.225006 
	C659.351746,361.181915 660.009644,360.995972 660.671265,360.990021 
	C662.399536,360.974396 664.128418,361.021942 665.857056,361.044342 
	C664.234314,362.410706 662.815308,364.433960 660.948425,365.012756 
	C656.440918,366.410217 652.382690,364.838928 649.539612,361.138184 
	C646.065430,356.616089 646.698730,351.863953 649.884277,346.979492 
z"/>
<path fill="#384551" opacity="1.000000" stroke="none" 
	d="
M391.877655,357.108643 
	C390.959015,349.642914 394.490082,344.530823 401.049500,343.351624 
	C406.902924,342.299377 412.347076,346.526337 413.515564,353.242157 
	C413.909363,355.505432 414.088165,357.886139 413.846313,360.157959 
	C413.591125,362.554901 415.264618,368.113953 409.312958,363.775665 
	C408.953522,363.513702 407.860382,364.310028 407.089447,364.552826 
	C400.070190,366.763550 395.122040,364.449341 391.877655,357.108643 
M397.167725,349.981598 
	C394.458801,355.085632 395.938232,360.051361 400.524231,361.080292 
	C404.156342,361.895172 407.204681,360.857880 408.865875,357.446350 
	C410.396057,354.303833 409.773285,351.311249 406.982117,348.993164 
	C403.788300,346.340729 400.694214,346.605377 397.167725,349.981598 
z"/>
<path fill="#374350" opacity="1.000000" stroke="none" 
	d="
M453.553497,356.269684 
	C450.445831,356.000397 447.741211,355.731262 445.036560,355.462128 
	C445.036499,354.759949 445.036438,354.057770 445.036377,353.355591 
	C447.736603,352.828583 450.436798,352.301544 453.424286,351.718414 
	C451.609467,347.627838 448.785156,346.213745 444.688416,347.830261 
	C440.879059,349.333405 439.420074,352.336823 440.297852,356.216675 
	C441.117981,359.841492 445.064514,361.966827 448.766602,361.133911 
	C448.928314,361.097534 449.093719,361.049164 449.256744,361.051666 
	C451.054962,361.079102 452.853088,361.115570 454.651215,361.149597 
	C452.850830,362.468781 451.218445,364.505219 449.218750,364.973602 
	C443.062866,366.415466 437.621674,362.665283 436.239105,356.611725 
	C435.029785,351.316559 438.482727,345.609436 443.957825,343.854065 
	C449.466492,342.087982 455.554230,345.035187 457.601105,350.633362 
	C458.808228,353.934814 458.773071,356.724243 453.553497,356.269684 
z"/>
<path fill="#394552" opacity="1.000000" stroke="none" 
	d="
M506.143280,364.056305 
	C501.562897,360.734894 499.406525,356.735901 500.979797,351.391327 
	C502.185150,347.296570 504.820770,344.706055 509.117493,343.637909 
	C513.952942,342.435852 517.575378,344.265808 520.444092,347.801361 
	C523.341980,351.372894 523.417603,355.684235 521.409790,359.505951 
	C519.305359,363.511780 515.623718,365.839386 510.783051,365.331635 
	C509.323090,365.178467 507.906097,364.615692 506.143280,364.056305 
M504.836029,356.072540 
	C507.323090,361.190582 511.422668,362.832642 515.333801,360.216858 
	C518.300842,358.232452 519.836121,355.077850 517.992188,352.180634 
	C516.558350,349.927704 513.329224,347.458099 510.924896,347.485016 
	C506.811859,347.531128 504.261627,350.663055 504.836029,356.072540 
z"/>
<path fill="#384551" opacity="1.000000" stroke="none" 
	d="
M330.293213,345.195068 
	C337.373596,342.006653 342.795258,343.347931 346.113281,348.834991 
	C348.902985,353.448395 347.661194,359.645081 343.258972,363.078400 
	C338.922913,366.460114 331.977539,365.988983 328.400208,361.972626 
	C324.963013,358.113617 323.449951,350.772980 330.293213,345.195068 
M337.286774,347.215637 
	C331.238922,348.225983 328.281952,351.761414 329.779205,356.291565 
	C330.882935,359.631134 333.043854,361.602356 336.798492,361.225861 
	C340.278107,360.876953 342.826508,359.361847 343.372986,355.626038 
	C343.995453,351.370605 342.002472,348.738617 337.286774,347.215637 
z"/>
<path fill="#384551" opacity="1.000000" stroke="none" 
	d="
M613.957092,359.775269 
	C610.260376,366.030884 603.838745,366.320648 599.513916,364.464783 
	C595.231873,362.627228 592.546204,356.913452 593.437012,352.449829 
	C594.722717,346.007904 601.096802,341.931946 607.231995,343.628540 
	C614.052795,345.514740 616.920166,352.121643 613.957092,359.775269 
M598.971313,349.812103 
	C596.564453,353.286255 596.233093,357.076385 599.872131,359.405273 
	C601.950928,360.735657 605.523682,360.893250 608.004639,360.160309 
	C611.685791,359.072693 611.768616,355.422150 611.041992,352.192627 
	C609.967163,347.415497 604.735291,346.107788 598.971313,349.812103 
z"/>
<path fill="#35424F" opacity="1.000000" stroke="none" 
	d="
M478.992126,350.762085 
	C478.547577,355.632782 478.234314,360.088776 477.857635,365.446899 
	C476.453033,364.729706 474.422943,364.188354 474.412628,363.610962 
	C474.314026,358.087646 472.648499,352.316956 476.503876,347.272980 
	C481.368652,340.908478 490.545074,341.240814 493.359863,348.599945 
	C495.103973,353.159760 494.486572,358.645935 494.721252,363.725891 
	C494.746033,364.262512 493.307159,365.373413 492.656097,365.296600 
	C491.961243,365.214600 490.917572,364.077362 490.858215,363.334320 
	C490.633728,360.523560 491.251587,357.560791 490.591064,354.893433 
	C489.935608,352.246368 488.714996,349.026550 486.668182,347.611298 
	C483.909332,345.703735 480.979187,347.518250 478.992126,350.762085 
z"/>
<path fill="#374350" opacity="1.000000" stroke="none" 
	d="
M369.404419,355.605591 
	C369.779877,351.125336 370.076385,347.090332 370.462463,341.836426 
	C374.966064,346.812805 374.852478,357.423279 371.514099,361.598938 
	C368.220276,365.718933 363.392303,366.600128 358.632263,364.142212 
	C354.774353,362.150146 353.435822,358.746277 353.125977,354.787506 
	C352.932190,352.311249 352.836182,349.773041 353.179718,347.330627 
	C353.367554,345.994995 354.561157,344.800812 355.301178,343.542847 
	C355.957367,344.887360 356.969788,346.177307 357.186127,347.589203 
	C357.509399,349.698883 357.223694,351.895844 357.284271,354.053192 
	C357.386932,357.709564 358.697144,360.706970 362.697083,361.217255 
	C366.378540,361.686920 368.643219,359.735565 369.404419,355.605591 
z"/>
<path fill="#3B4754" opacity="1.000000" stroke="none" 
	d="
M323.117432,344.010376 
	C322.491150,347.020325 321.828705,349.865265 320.708801,352.517029 
	C317.822205,359.352081 314.797729,366.131927 311.647217,372.848877 
	C311.232147,373.733856 309.759888,374.122955 308.777222,374.741699 
	C308.458771,373.752472 307.550201,372.302277 307.909424,371.842346 
	C314.432404,363.491089 308.039429,357.009552 304.903931,350.066376 
	C304.700745,349.616425 304.197845,349.236542 304.153076,348.791992 
	C303.980316,347.076660 303.937012,345.348328 303.845459,343.624817 
	C305.049042,344.646881 306.635895,345.446289 307.383514,346.733246 
	C309.530243,350.428467 311.337341,354.321014 313.567139,358.704590 
	C315.500061,354.306915 316.961761,350.431427 318.915314,346.822174 
	C319.641876,345.479828 321.519897,344.760681 323.117432,344.010376 
z"/>
<path fill="#374350" opacity="1.000000" stroke="none" 
	d="
M639.070312,345.934509 
	C643.673645,351.450623 641.625916,357.672974 641.890747,363.519104 
	C641.914673,364.046265 640.565796,364.635590 639.854431,365.196045 
	C639.224304,364.372742 638.123352,363.588745 638.050781,362.718903 
	C637.816345,359.910187 637.970093,357.069824 637.955750,354.241760 
	C637.935120,350.191437 636.051636,347.333557 631.934875,347.161469 
	C627.629211,346.981537 625.846558,349.970123 625.699524,353.966675 
	C625.595581,356.791199 625.852112,359.642792 625.546814,362.438538 
	C625.440735,363.410309 624.131348,364.250732 623.371582,365.151123 
	C622.737244,364.304810 621.553528,363.454102 621.560303,362.612946 
	C621.596008,358.160889 621.200134,353.514984 622.330078,349.305695 
	C624.128967,342.603912 632.028076,341.116730 639.070312,345.934509 
z"/>
<path fill="#323F4C" opacity="1.000000" stroke="none" 
	d="
M529.745728,354.527710 
	C529.745667,349.599823 529.605652,345.112732 529.828613,340.643799 
	C529.897766,339.257446 530.952148,337.920197 531.555481,336.560486 
	C532.338684,337.949860 533.239929,339.289642 533.854126,340.750092 
	C534.150024,341.453857 533.905151,342.385071 533.905151,343.344177 
	C535.667725,343.917206 537.388611,344.476715 539.109558,345.036224 
	C539.152222,345.454376 539.194946,345.872498 539.237671,346.290619 
	C537.599976,347.027679 535.962280,347.764740 534.012390,348.642303 
	C534.133057,353.997009 531.469055,360.596191 540.719971,362.807281 
	C540.426697,363.334015 540.133484,363.860748 539.840271,364.387482 
	C538.201965,364.498718 536.377075,365.131561 534.960022,364.624451 
	C530.514954,363.033752 529.461304,359.292877 529.745728,354.527710 
z"/>
<path fill="#323F4C" opacity="1.000000" stroke="none" 
	d="
M586.037476,364.609924 
	C584.779785,362.245026 583.116455,360.117828 582.987305,357.901306 
	C582.592102,351.116486 582.693359,344.295258 582.840698,337.493408 
	C582.865845,336.332977 584.068848,335.198090 584.727722,334.051422 
	C585.451843,335.195129 586.755615,336.316071 586.801514,337.486328 
	C587.022522,343.123138 587.037170,348.777405 586.859680,354.417114 
	C586.742188,358.150391 586.977417,361.424469 591.773804,362.281311 
	C591.733032,362.822296 591.692200,363.363251 591.651428,363.904205 
	C589.878784,364.205048 588.106079,364.505920 586.037476,364.609924 
z"/>
<path fill="#374350" opacity="1.000000" stroke="none" 
	d="
M422.384430,347.521667 
	C425.477203,345.808929 428.268982,344.252075 431.211517,343.070740 
	C431.846497,342.815765 433.024689,343.913971 433.952667,344.388916 
	C433.259064,345.191498 432.723663,346.363251 431.847107,346.738892 
	C424.214813,350.009399 423.932648,350.345459 423.919556,358.202881 
	C423.918457,358.864380 424.092896,359.586700 423.886322,360.175781 
	C423.303558,361.837677 422.564758,363.444855 421.887512,365.073608 
	C421.244598,363.466064 419.950928,361.802307 420.084045,360.261841 
	C420.445038,356.083954 421.411194,351.958374 422.384430,347.521667 
z"/>
<path fill="#F9FAFB" opacity="1.000000" stroke="none" 
	d="
M591.374573,189.222855 
	C605.718323,181.948822 619.031982,182.977692 631.239685,192.973801 
	C634.149231,195.356232 635.789612,194.918121 638.398560,192.763077 
	C652.593323,181.037674 673.153809,182.105957 685.437683,195.016907 
	C697.959229,208.177628 698.656860,228.739792 685.983826,242.086197 
	C669.714478,259.220001 652.688599,275.635590 635.973755,292.345612 
	C635.644470,292.674744 635.131287,292.819855 634.173157,293.337708 
	C628.191223,287.260864 622.165344,281.084717 616.079041,274.968750 
	C605.745178,264.584534 595.286621,254.323074 585.036987,243.856705 
	C568.509094,226.979233 571.287170,202.303894 591.374573,189.222855 
M635.495361,237.872192 
	C637.616821,239.982742 639.524353,242.397110 641.936096,244.095505 
	C643.505615,245.200790 646.401367,246.317673 647.674927,245.601410 
	C651.891113,243.230179 655.640991,240.029587 659.527283,237.178421 
	C660.641296,238.232132 661.379578,238.901337 662.085815,239.602859 
	C670.883667,248.342346 670.882507,248.343536 679.639221,239.525482 
	C685.121277,234.005051 685.160095,232.534821 679.487732,226.977905 
	C677.105774,224.644379 674.254456,222.294327 675.911133,218.742477 
	C676.969604,216.473236 679.491638,214.884003 681.366394,212.998779 
	C683.950500,210.400269 684.984253,207.258698 681.911682,204.778046 
	C677.734741,201.405823 675.737976,194.009842 668.120850,196.494858 
	C666.962158,196.872864 666.015930,198.100128 665.131714,199.079346 
	C663.387939,201.010513 661.756409,203.043030 660.174377,204.919861 
	C656.794067,202.610168 654.018311,201.140717 651.792053,199.078110 
	C649.324036,196.791534 646.440308,194.154343 643.620056,196.494995 
	C639.455322,199.951492 633.996094,202.767441 633.200317,209.104263 
	C633.110779,209.817719 633.601074,210.742569 634.084473,211.366409 
	C636.789795,214.858002 639.575684,218.287170 642.566223,222.028061 
	C639.906738,224.558807 637.743896,226.619293 635.578369,228.676910 
	C632.726746,231.386383 632.063293,234.238876 635.495361,237.872192 
z"/>
<path fill="#FBFBFB" opacity="1.000000" stroke="none" 
	d="
M204.369171,284.459930 
	C196.834290,290.609772 188.259140,292.874390 179.161469,292.997284 
	C163.245087,293.212311 147.323715,293.057220 131.170074,293.057220 
	C131.170074,274.741211 131.170074,256.666321 131.170074,238.290054 
	C131.920029,238.174927 132.691498,237.952576 133.462708,237.953430 
	C148.938034,237.970551 164.418655,237.783920 179.886597,238.140732 
	C188.577621,238.341202 196.760468,240.592133 203.974731,246.047256 
	C215.950378,255.102783 215.103607,276.289185 204.369171,284.459930 
z"/>
<path fill="#FBFBFB" opacity="1.000000" stroke="none" 
	d="
M163.969910,183.052185 
	C173.003052,183.926971 181.799255,183.800430 190.018433,185.915848 
	C201.774994,188.941681 207.214005,198.688736 206.216873,211.657104 
	C205.386536,222.456100 197.703354,230.959396 186.582108,232.904007 
	C181.864975,233.728806 177.030228,234.179260 172.241745,234.240753 
	C158.640778,234.415421 145.036118,234.302017 131.294632,234.302017 
	C131.134964,233.255707 130.955795,232.626816 130.955200,231.997757 
	C130.939789,215.877625 130.943024,199.757462 130.943024,183.052185 
	C141.959000,183.052185 152.717117,183.052185 163.969910,183.052185 
z"/>
<path fill="#F9F9F9" opacity="1.000000" stroke="none" 
	d="
M377.502502,217.653046 
	C382.643066,206.549683 387.569580,195.762085 392.992859,183.886658 
	C404.421997,208.680771 415.513550,232.742599 426.877991,257.396362 
	C404.235809,257.396362 382.395721,257.396362 359.781128,257.396362 
	C365.708191,244.048248 371.498322,231.008530 377.502502,217.653046 
z"/>
<path fill="#F7F8F8" opacity="1.000000" stroke="none" 
	d="
M562.554810,348.584595 
	C567.075256,345.677490 570.485840,347.509308 572.515137,351.039886 
	C574.176331,353.930176 574.177795,357.625702 570.746216,359.842468 
	C567.565735,361.897064 564.235779,362.204620 561.316833,359.158844 
	C558.301514,356.012512 558.595703,352.928711 562.554810,348.584595 
z"/>
<path fill="#F9F9F9" opacity="1.000000" stroke="none" 
	d="
M397.451233,349.700317 
	C400.694214,346.605377 403.788300,346.340729 406.982117,348.993164 
	C409.773285,351.311249 410.396057,354.303833 408.865875,357.446350 
	C407.204681,360.857880 404.156342,361.895172 400.524231,361.080292 
	C395.938232,360.051361 394.458801,355.085632 397.451233,349.700317 
z"/>
<path fill="#F9F9F9" opacity="1.000000" stroke="none" 
	d="
M504.713989,355.670441 
	C504.261627,350.663055 506.811859,347.531128 510.924896,347.485016 
	C513.329224,347.458099 516.558350,349.927704 517.992188,352.180634 
	C519.836121,355.077850 518.300842,358.232452 515.333801,360.216858 
	C511.422668,362.832642 507.323090,361.190582 504.713989,355.670441 
z"/>
<path fill="#F7F8F8" opacity="1.000000" stroke="none" 
	d="
M337.656982,347.329773 
	C342.002472,348.738617 343.995453,351.370605 343.372986,355.626038 
	C342.826508,359.361847 340.278107,360.876953 336.798492,361.225861 
	C333.043854,361.602356 330.882935,359.631134 329.779205,356.291565 
	C328.281952,351.761414 331.238922,348.225983 337.656982,347.329773 
z"/>
<path fill="#F7F8F8" opacity="1.000000" stroke="none" 
	d="
M599.199585,349.473511 
	C604.735291,346.107788 609.967163,347.415497 611.041992,352.192627 
	C611.768616,355.422150 611.685791,359.072693 608.004639,360.160309 
	C605.523682,360.893250 601.950928,360.735657 599.872131,359.405273 
	C596.233093,357.076385 596.564453,353.286255 599.199585,349.473511 
z"/>
<path fill="#458DD2" opacity="1.000000" stroke="none" 
	d="
M635.250122,237.601715 
	C632.063293,234.238876 632.726746,231.386383 635.578369,228.676910 
	C637.743896,226.619293 639.906738,224.558807 642.566223,222.028061 
	C639.575684,218.287170 636.789795,214.858002 634.084473,211.366409 
	C633.601074,210.742569 633.110779,209.817719 633.200317,209.104263 
	C633.996094,202.767441 639.455322,199.951492 643.620056,196.494995 
	C646.440308,194.154343 649.324036,196.791534 651.792053,199.078110 
	C654.018311,201.140717 656.794067,202.610168 660.174377,204.919861 
	C661.756409,203.043030 663.387939,201.010513 665.131714,199.079346 
	C666.015930,198.100128 666.962158,196.872864 668.120850,196.494858 
	C675.737976,194.009842 677.734741,201.405823 681.911682,204.778046 
	C684.984253,207.258698 683.950500,210.400269 681.366394,212.998779 
	C679.491638,214.884003 676.969604,216.473236 675.911133,218.742477 
	C674.254456,222.294327 677.105774,224.644379 679.487732,226.977905 
	C685.160095,232.534821 685.121277,234.005051 679.639221,239.525482 
	C670.882507,248.343536 670.883667,248.342346 662.085815,239.602859 
	C661.379578,238.901337 660.641296,238.232132 659.527283,237.178421 
	C655.640991,240.029587 651.891113,243.230179 647.674927,245.601410 
	C646.401367,246.317673 643.505615,245.200790 641.936096,244.095505 
	C639.524353,242.397110 637.616821,239.982742 635.250122,237.601715 
M663.544067,234.971588 
	C665.619934,237.493790 667.695801,240.016006 669.503784,242.212753 
	C673.526428,238.491150 676.379639,235.851471 678.450073,233.935944 
	C667.245422,222.603638 656.331909,211.565765 645.549194,200.660263 
	C643.028076,202.963089 640.242249,205.507599 636.625916,208.810745 
	C645.703186,217.638641 654.364441,226.062012 663.544067,234.971588 
M639.042297,235.258041 
	C641.371033,237.510956 643.699829,239.763885 645.264709,241.277802 
	C648.904785,238.241013 652.048401,235.618423 654.883362,233.253311 
	C651.671265,230.062271 648.891052,227.300308 645.619751,224.050476 
	C643.625305,226.262451 641.376892,228.506454 639.463989,231.007156 
	C638.750732,231.939499 638.821106,233.471176 639.042297,235.258041 
M676.422485,211.860901 
	C677.378296,210.781143 678.334045,209.701401 678.974365,208.978027 
	C676.145447,205.773026 673.576904,202.863007 671.225464,200.198898 
	C667.952026,203.211258 664.969299,205.956146 661.945862,208.738541 
	C664.791809,211.736115 667.468201,214.555115 671.454773,218.754135 
	C673.074402,216.422836 674.485229,214.392105 676.422485,211.860901 
z"/>
<path fill="#F7F9FA" opacity="1.000000" stroke="none" 
	d="
M663.284912,234.728485 
	C654.364441,226.062012 645.703186,217.638641 636.625916,208.810745 
	C640.242249,205.507599 643.028076,202.963089 645.549194,200.660263 
	C656.331909,211.565765 667.245422,222.603638 678.450073,233.935944 
	C676.379639,235.851471 673.526428,238.491150 669.503784,242.212753 
	C667.695801,240.016006 665.619934,237.493790 663.284912,234.728485 
z"/>
<path fill="#F2F6F9" opacity="1.000000" stroke="none" 
	d="
M638.788208,234.993805 
	C638.821106,233.471176 638.750732,231.939499 639.463989,231.007156 
	C641.376892,228.506454 643.625305,226.262451 645.619751,224.050476 
	C648.891052,227.300308 651.671265,230.062271 654.883362,233.253311 
	C652.048401,235.618423 648.904785,238.241013 645.264709,241.277802 
	C643.699829,239.763885 641.371033,237.510956 638.788208,234.993805 
z"/>
<path fill="#F2F6F9" opacity="1.000000" stroke="none" 
	d="
M676.159302,212.111145 
	C674.485229,214.392105 673.074402,216.422836 671.454773,218.754135 
	C667.468201,214.555115 664.791809,211.736115 661.945862,208.738541 
	C664.969299,205.956146 667.952026,203.211258 671.225464,200.198898 
	C673.576904,202.863007 676.145447,205.773026 678.974365,208.978027 
	C678.334045,209.701401 677.378296,210.781143 676.159302,212.111145 
z"/>
</svg>